<svg xmlns="http://www.w3.org/2000/svg"  viewBox="0 0 24 24" width="48px" height="48px" baseProfile="basic"><linearGradient id="RChRgyXFftwMpmgkzRua3a" x1="3.379" x2="20.621" y1="3.379" y2="20.621" gradientUnits="userSpaceOnUse"><stop offset="0" stop-color="#fff" stop-opacity=".6"/><stop offset="1" stop-color="#fff" stop-opacity=".3"/></linearGradient><path fill="url(#RChRgyXFftwMpmgkzRua3a)" d="M19,3H5C3.343,3,2,4.343,2,6v2.369c0,0.76,0.758,1.278,1.471,1.016C4.032,9.179,4.626,9,5,9 c1.657,0,3,1.343,3,3s-1.343,3-3,3c-0.374,0-0.968-0.179-1.529-0.385C2.758,14.353,2,14.871,2,15.631V18c0,1.657,1.343,3,3,3h14 c1.657,0,3-1.343,3-3V6C22,4.343,20.657,3,19,3z"/><linearGradient id="RChRgyXFftwMpmgkzRua3b" x1="3.379" x2="20.621" y1="3.379" y2="20.621" gradientUnits="userSpaceOnUse"><stop offset="0" stop-color="#fff" stop-opacity=".6"/><stop offset=".493" stop-color="#fff" stop-opacity="0"/><stop offset=".997" stop-color="#fff" stop-opacity=".3"/></linearGradient><path fill="url(#RChRgyXFftwMpmgkzRua3b)" d="M19,3.5c1.378,0,2.5,1.122,2.5,2.5v12 c0,1.378-1.122,2.5-2.5,2.5H5c-1.378,0-2.5-1.122-2.5-2.5v-2.369c0-0.205,0.095-0.34,0.175-0.417 c0.11-0.107,0.261-0.168,0.413-0.168c0.071,0,0.142,0.013,0.21,0.038C4.059,15.364,4.616,15.5,5,15.5c1.93,0,3.5-1.57,3.5-3.5 S6.93,8.5,5,8.5c-0.384,0-0.941,0.136-1.702,0.416c-0.069,0.025-0.14,0.038-0.21,0.038C2.805,8.954,2.5,8.73,2.5,8.369V6 c0-1.378,1.122-2.5,2.5-2.5H19 M19,3H5C3.343,3,2,4.343,2,6v2.369c0,0.624,0.51,1.085,1.088,1.085c0.126,0,0.255-0.022,0.383-0.069 C4.032,9.179,4.626,9,5,9c1.657,0,3,1.343,3,3s-1.343,3-3,3c-0.374,0-0.968-0.179-1.529-0.385 c-0.128-0.047-0.257-0.069-0.383-0.069C2.51,14.546,2,15.007,2,15.631V18c0,1.657,1.343,3,3,3h14c1.657,0,3-1.343,3-3V6 C22,4.343,20.657,3,19,3L19,3z"/><linearGradient id="RChRgyXFftwMpmgkzRua3c" x1="11.061" x2="23.182" y1="5.939" y2="18.061" gradientUnits="userSpaceOnUse"><stop offset="0" stop-color="#fff" stop-opacity=".7"/><stop offset=".519" stop-color="#fff" stop-opacity=".45"/><stop offset="1" stop-color="#fff" stop-opacity=".55"/></linearGradient><path fill="url(#RChRgyXFftwMpmgkzRua3c)" d="M19,3h-5h0c1.657,0,3,1.343,3,3v2.369	c0,0.76-0.758,1.278-1.471,1.016C14.968,9.179,14.374,9,14,9c-1.657,0-3,1.343-3,3s1.343,3,3,3c0.374,0,0.968-0.179,1.529-0.385	C16.242,14.353,17,14.871,17,15.631V18c0,1.657-1.343,3-3,3h0h5c1.657,0,3-1.343,3-3V6C22,4.343,20.657,3,19,3z"/></svg>